<svg width="102" height="104" fill="none" xmlns="http://www.w3.org/2000/svg"><path d="M23.589 45.651a9.168 9.168 0 01-7.122-3.36c1.975-.55 3.626-1.68 4.92-3.329 1.295-1.648 1.943-3.555 1.943-5.655 0-2.553-.907-4.75-2.752-6.56C18.733 24.905 16.532 24 13.975 24H12v24.334h2.654v-4.04c2.234 2.489 5.471 4.04 8.935 4.04V45.65zm-2.946-12.344c0 1.713-.583 3.2-1.748 4.46-1.133 1.26-2.557 2.003-4.24 2.165V26.714c1.715.162 3.14.873 4.272 2.133 1.133 1.26 1.716 2.747 1.716 4.46zm29.233 2.843c0-3.328-1.198-6.204-3.593-8.563C43.92 25.196 41.039 24 37.705 24c-3.335 0-6.216 1.196-8.611 3.587-2.363 2.36-3.56 5.235-3.56 8.564 0 3.36 1.197 6.237 3.56 8.628 2.395 2.359 5.276 3.555 8.61 3.555 3.335 0 6.216-1.196 8.579-3.555 2.395-2.391 3.593-5.268 3.593-8.628zm-2.654 0c0 2.618-.94 4.848-2.784 6.722-1.846 1.842-4.111 2.78-6.733 2.78s-4.856-.938-6.733-2.78c-1.846-1.874-2.784-4.104-2.784-6.721 0-2.618.938-4.848 2.784-6.69 1.877-1.842 4.11-2.779 6.733-2.779 2.622 0 4.888.937 6.733 2.78 1.845 1.841 2.783 4.071 2.783 6.689zm13.209 32.285c0-3.291-1.162-6.131-3.52-8.487-2.325-2.356-5.135-3.583-8.462-3.647h-1.324v24.301h1.324c3.327-.064 6.137-1.29 8.462-3.647 2.358-2.355 3.52-5.195 3.52-8.52zm-2.68 0c0 2.324-.743 4.39-2.261 6.165-1.518 1.775-3.424 2.872-5.717 3.227v-18.75c2.293.354 4.199 1.452 5.717 3.227 1.518 1.775 2.26 3.84 2.26 6.131zm18.644 3.776h-9.3V58.915h9.3v-2.646H64.413V72.21h-1.55v2.679h1.55v5.68h11.821v-2.646h-9.14V74.89h9.301v-2.68zM89.868 56.3h-2.649v4.97l-8.397-5.001v24.333h2.648V60.948l5.75 3.421v16.233h2.648V56.301zM57.81 24h32.057v24.334H57.81zM12 56.269h27.19v24.334H12z" fill="#8D99FF"/></svg>