<svg width="404" height="414" fill="none" xmlns="http://www.w3.org/2000/svg"><path stroke="#8D99FF" stroke-width="2" d="M1 1h402v412H1z"/><path d="M93.73 181.728c-11.19 0-21.48-5.017-28.297-13.379 7.846-2.186 14.406-6.689 19.551-13.25 5.145-6.56 7.718-14.15 7.718-22.512 0-10.162-3.602-18.91-10.933-26.114-7.332-7.332-16.079-10.934-26.24-10.934h-7.846v96.866H58.23v-16.08c8.875 9.906 21.738 16.08 35.5 16.08v-10.677zm-11.704-49.141c0 6.818-2.316 12.736-6.946 17.753-4.502 5.017-10.162 7.975-16.85 8.619v-52.615c6.817.644 12.477 3.474 16.979 8.491 4.501 5.017 6.817 10.934 6.817 17.752z" fill="url(#paint0_linear_2_5144)"/><path d="M198.184 143.908c0-13.25-4.759-24.699-14.277-34.09-9.39-9.52-20.838-14.28-34.086-14.28-13.249 0-24.696 4.76-34.215 14.28-9.389 9.391-14.149 20.84-14.149 34.09 0 13.378 4.76 24.827 14.149 34.347 9.519 9.391 20.966 14.15 34.215 14.15 13.248 0 24.696-4.759 34.086-14.15 9.518-9.52 14.277-20.969 14.277-34.347zm-10.547 0c0 10.42-3.73 19.296-11.062 26.757-7.332 7.332-16.336 11.063-26.754 11.063-10.419 0-19.294-3.731-26.754-11.063-7.332-7.461-11.062-16.337-11.062-26.757 0-10.42 3.73-19.297 11.062-26.629 7.46-7.333 16.335-11.063 26.754-11.063 10.418 0 19.422 3.73 26.754 11.063 7.332 7.332 11.062 16.209 11.062 26.629z" fill="url(#paint1_linear_2_5144)"/><path d="M240.126 272.426c0-13.104-4.619-24.41-13.988-33.788-9.24-9.379-20.404-14.26-33.623-14.517h-5.261v96.738h5.261c13.219-.257 24.383-5.139 33.623-14.517 9.369-9.379 13.988-20.684 13.988-33.916zm-10.651 0c0 9.249-2.952 17.472-8.983 24.537-6.032 7.066-13.603 11.434-22.715 12.847v-74.641c9.112 1.413 16.683 5.781 22.715 12.847 6.031 7.066 8.983 15.288 8.983 24.41z" fill="url(#paint2_linear_2_5144)"/><path d="M303.561 287.457h-36.959v-52.93h36.959v-10.535H255.95v63.465h-6.16v10.663h6.16v22.61h46.97v-10.534h-36.318V298.12h36.959v-10.663z" fill="url(#paint3_linear_2_5144)"/><path d="M357.094 224.121H346.57v19.784l-33.366-19.913v96.867h10.523V242.62l22.843 13.618v64.621h10.524v-96.738z" fill="url(#paint4_linear_2_5144)"/><path fill="url(#paint5_linear_2_5144)" d="M229.714 95.539h127.38v96.867h-127.38z"/><path fill="url(#paint6_linear_2_5144)" d="M47.683 223.992h108.042v96.867H47.683z"/><defs><linearGradient id="paint0_linear_2_5144" x1="47.683" y1="143.972" x2="198.184" y2="143.972" gradientUnits="userSpaceOnUse"><stop stop-color="#4776E6"/><stop offset="1" stop-color="#8E54E9"/></linearGradient><linearGradient id="paint1_linear_2_5144" x1="47.683" y1="143.972" x2="198.184" y2="143.972" gradientUnits="userSpaceOnUse"><stop stop-color="#4776E6"/><stop offset="1" stop-color="#8E54E9"/></linearGradient><linearGradient id="paint2_linear_2_5144" x1="187.254" y1="272.426" x2="357.094" y2="272.426" gradientUnits="userSpaceOnUse"><stop stop-color="#4776E6"/><stop offset="1" stop-color="#8E54E9"/></linearGradient><linearGradient id="paint3_linear_2_5144" x1="187.254" y1="272.426" x2="357.094" y2="272.426" gradientUnits="userSpaceOnUse"><stop stop-color="#4776E6"/><stop offset="1" stop-color="#8E54E9"/></linearGradient><linearGradient id="paint4_linear_2_5144" x1="187.254" y1="272.426" x2="357.094" y2="272.426" gradientUnits="userSpaceOnUse"><stop stop-color="#4776E6"/><stop offset="1" stop-color="#8E54E9"/></linearGradient><linearGradient id="paint5_linear_2_5144" x1="229.714" y1="143.972" x2="357.094" y2="143.972" gradientUnits="userSpaceOnUse"><stop stop-color="#4776E6"/><stop offset="1" stop-color="#8E54E9"/></linearGradient><linearGradient id="paint6_linear_2_5144" x1="47.683" y1="272.426" x2="155.724" y2="272.426" gradientUnits="userSpaceOnUse"><stop stop-color="#4776E6"/><stop offset="1" stop-color="#8E54E9"/></linearGradient></defs></svg>