<svg width="102" height="104" viewBox="0 0 102 104" fill="none" xmlns="http://www.w3.org/2000/svg">
<path d="M23.5887 45.6515C20.7724 45.6515 18.1828 44.3912 16.4671 42.2906C18.4418 41.7413 20.0927 40.6102 21.3875 38.9621C22.6823 37.314 23.3297 35.4074 23.3297 33.3069C23.3297 30.754 22.4233 28.5565 20.5782 26.7468C18.7331 24.9048 16.5319 24 13.9746 24H12V48.3337H14.6544V44.2942C16.888 46.7825 20.125 48.3337 23.5887 48.3337V45.6515ZM20.643 33.3069C20.643 35.0196 20.0603 36.5061 18.8949 37.7665C17.762 39.0268 16.3377 39.77 14.6544 39.9316V26.7145C16.37 26.8761 17.7943 27.587 18.9273 28.8473C20.0603 30.1077 20.643 31.5942 20.643 33.3069Z" fill="#8D99FF"/>
<path d="M49.8759 36.1507C49.8759 32.8222 48.6782 29.9461 46.2828 27.587C43.9197 25.1957 41.0387 24 37.7045 24C34.3704 24 31.4894 25.1957 29.094 27.587C26.7309 29.9461 25.5332 32.8222 25.5332 36.1507C25.5332 39.5115 26.7309 42.3876 29.094 44.779C31.4894 47.138 34.3704 48.3337 37.7045 48.3337C41.0387 48.3337 43.9197 47.138 46.2828 44.779C48.6782 42.3876 49.8759 39.5115 49.8759 36.1507ZM47.2215 36.1507C47.2215 38.7682 46.2828 40.998 44.4376 42.8723C42.5925 44.7143 40.3266 45.6515 37.7045 45.6515C35.0825 45.6515 32.8489 44.7143 30.9715 42.8723C29.1263 40.998 28.1876 38.7682 28.1876 36.1507C28.1876 33.5331 29.1263 31.3033 30.9715 29.4613C32.8489 27.6194 35.0825 26.6822 37.7045 26.6822C40.3266 26.6822 42.5925 27.6194 44.4376 29.4613C46.2828 31.3033 47.2215 33.5331 47.2215 36.1507Z" fill="#8D99FF"/>
<path d="M60.4311 68.4354C60.4311 65.1436 59.2685 62.3036 56.9108 59.9477C54.5855 57.5917 51.7757 56.3654 48.4492 56.3008H47.125V80.6022H48.4492C51.7757 80.5377 54.5855 79.3113 56.9108 76.9554C59.2685 74.5995 60.4311 71.7595 60.4311 68.4354ZM57.7505 68.4354C57.7505 70.759 57.0077 72.8245 55.4898 74.5995C53.9719 76.3745 52.0664 77.4718 49.7733 77.8268V59.0763C52.0664 59.4313 53.9719 60.5286 55.4898 62.3036C57.0077 64.0786 57.7505 66.144 57.7505 68.4354Z" fill="#8D99FF"/>
<path d="M76.3954 72.2113H67.0941V58.9149H76.3954V56.2686H64.4135V72.2113H62.8632V74.8899H64.4135V80.57H76.234V77.9236H67.0941V74.8899H76.3954V72.2113Z" fill="#8D99FF"/>
<path d="M89.8676 56.3008H87.2193V61.2708L78.8222 56.2686V80.6022H81.4705V60.9481L87.2193 64.369V80.6022H89.8676V56.3008Z" fill="#8D99FF"/>
<rect x="57.8105" y="24" width="32.057" height="24.3337" fill="#8D99FF"/>
<rect x="12" y="56.2686" width="27.1902" height="24.3337" fill="#8D99FF"/>
</svg>
