<svg width="404" height="414" viewBox="0 0 404 414" fill="none" xmlns="http://www.w3.org/2000/svg">
<rect x="1" y="1" width="402" height="412" stroke="#8D99FF" stroke-width="2"/>
<path d="M93.7308 181.728C82.5403 181.728 72.2502 176.711 65.433 168.349C73.2792 166.163 79.8391 161.66 84.9842 155.099C90.1292 148.539 92.7017 140.949 92.7017 132.587C92.7017 122.425 89.1002 113.677 81.7685 106.473C74.4368 99.1405 65.6903 95.5386 55.5288 95.5386H47.6826V192.405H58.23V176.325C67.1052 186.231 79.9678 192.405 93.7308 192.405V181.728ZM82.0258 132.587C82.0258 139.405 79.7105 145.323 75.08 150.34C70.5781 155.357 64.9185 158.315 58.23 158.959V106.344C65.0471 106.988 70.7067 109.818 75.2086 114.835C79.7105 119.852 82.0258 125.769 82.0258 132.587Z" fill="url(#paint0_linear_2_5144)"/>
<path d="M198.184 143.908C198.184 130.658 193.425 119.209 183.907 109.818C174.517 100.298 163.069 95.5386 149.821 95.5386C136.572 95.5386 125.125 100.298 115.606 109.818C106.217 119.209 101.457 130.658 101.457 143.908C101.457 157.286 106.217 168.735 115.606 178.255C125.125 187.646 136.572 192.405 149.821 192.405C163.069 192.405 174.517 187.646 183.907 178.255C193.425 168.735 198.184 157.286 198.184 143.908ZM187.637 143.908C187.637 154.328 183.907 163.204 176.575 170.665C169.243 177.997 160.239 181.728 149.821 181.728C139.402 181.728 130.527 177.997 123.067 170.665C115.735 163.204 112.005 154.328 112.005 143.908C112.005 133.488 115.735 124.611 123.067 117.279C130.527 109.946 139.402 106.216 149.821 106.216C160.239 106.216 169.243 109.946 176.575 117.279C183.907 124.611 187.637 133.488 187.637 143.908Z" fill="url(#paint1_linear_2_5144)"/>
<path d="M240.126 272.426C240.126 259.322 235.507 248.016 226.138 238.638C216.898 229.259 205.734 224.378 192.515 224.121H187.254V320.859H192.515C205.734 320.602 216.898 315.72 226.138 306.342C235.507 296.963 240.126 285.658 240.126 272.426ZM229.475 272.426C229.475 281.675 226.523 289.898 220.492 296.963C214.46 304.029 206.889 308.397 197.777 309.81V235.169C206.889 236.582 214.46 240.95 220.492 248.016C226.523 255.082 229.475 263.304 229.475 272.426Z" fill="url(#paint2_linear_2_5144)"/>
<path d="M303.561 287.457H266.602V234.527H303.561V223.992H255.95V287.457H249.79V298.12H255.95V320.73H302.92V310.196H266.602V298.12H303.561V287.457Z" fill="url(#paint3_linear_2_5144)"/>
<path d="M357.094 224.121H346.57V243.905L313.204 223.992V320.859H323.727V242.62L346.57 256.238V320.859H357.094V224.121Z" fill="url(#paint4_linear_2_5144)"/>
<rect x="229.714" y="95.5386" width="127.38" height="96.8667" fill="url(#paint5_linear_2_5144)"/>
<rect x="47.6826" y="223.992" width="108.042" height="96.8668" fill="url(#paint6_linear_2_5144)"/>
<defs>
<linearGradient id="paint0_linear_2_5144" x1="47.6826" y1="143.972" x2="198.184" y2="143.972" gradientUnits="userSpaceOnUse">
<stop stop-color="#4776E6"/>
<stop offset="1" stop-color="#8E54E9"/>
</linearGradient>
<linearGradient id="paint1_linear_2_5144" x1="47.6826" y1="143.972" x2="198.184" y2="143.972" gradientUnits="userSpaceOnUse">
<stop stop-color="#4776E6"/>
<stop offset="1" stop-color="#8E54E9"/>
</linearGradient>
<linearGradient id="paint2_linear_2_5144" x1="187.254" y1="272.426" x2="357.094" y2="272.426" gradientUnits="userSpaceOnUse">
<stop stop-color="#4776E6"/>
<stop offset="1" stop-color="#8E54E9"/>
</linearGradient>
<linearGradient id="paint3_linear_2_5144" x1="187.254" y1="272.426" x2="357.094" y2="272.426" gradientUnits="userSpaceOnUse">
<stop stop-color="#4776E6"/>
<stop offset="1" stop-color="#8E54E9"/>
</linearGradient>
<linearGradient id="paint4_linear_2_5144" x1="187.254" y1="272.426" x2="357.094" y2="272.426" gradientUnits="userSpaceOnUse">
<stop stop-color="#4776E6"/>
<stop offset="1" stop-color="#8E54E9"/>
</linearGradient>
<linearGradient id="paint5_linear_2_5144" x1="229.714" y1="143.972" x2="357.094" y2="143.972" gradientUnits="userSpaceOnUse">
<stop stop-color="#4776E6"/>
<stop offset="1" stop-color="#8E54E9"/>
</linearGradient>
<linearGradient id="paint6_linear_2_5144" x1="47.6826" y1="272.426" x2="155.724" y2="272.426" gradientUnits="userSpaceOnUse">
<stop stop-color="#4776E6"/>
<stop offset="1" stop-color="#8E54E9"/>
</linearGradient>
</defs>
</svg>
